<svg width="774" height="786" viewBox="0 0 774 786" fill="none" xmlns="http://www.w3.org/2000/svg">
<path d="M136.939 0C147.911 9.28982 158.82 18.5303 168.985 28.7117C171.921 31.6416 171.921 31.6416 174.916 34.6307C178.019 37.7494 178.019 37.7494 181.185 40.9312C183.423 43.1696 185.662 45.4079 187.969 47.7141C195.304 55.0518 202.63 62.4 209.955 69.7484C215.063 74.8627 220.173 79.9764 225.283 85.0895C238.684 98.5021 252.076 111.924 265.467 125.347C279.151 139.062 292.844 152.768 306.536 166.475C333.366 193.337 360.186 220.207 387 247.085C398.99 241.584 406.985 233.607 416.025 224.199C425.977 214.031 435.867 204.019 446.725 194.802C458.133 185.102 468.574 174.526 479.081 163.876C488.673 154.204 498.615 145.201 508.972 136.369C516.241 129.884 523.047 123.029 529.892 116.1C538.453 107.436 547.036 99.0594 556.312 91.1683C566.904 82.1204 576.672 72.4171 586.454 62.5154C602.344 46.4487 618.194 30.4397 637.061 17.8615C637.891 53.7796 638.525 89.6953 638.912 125.621C639.098 142.306 639.35 158.984 639.756 175.665C640.146 191.783 640.359 207.895 640.451 224.017C640.516 230.148 640.645 236.278 640.838 242.406C642.371 292.915 642.371 292.915 629.42 308.408C620.874 316.9 611.212 323.557 601.338 330.438C596.025 335.542 590.797 340.738 585.71 346.067C575.264 356.664 564.542 366.594 553.08 376.081C546.188 382.265 546.188 382.265 535.846 395.931C593.807 453.891 651.767 511.852 711.485 571.569C711.043 540.206 710.602 508.842 710.147 476.529C709.994 456.571 709.855 436.616 709.781 416.659C709.661 385.03 709.484 353.409 708.923 321.785C708.514 298.742 708.309 275.708 708.339 252.662C708.348 240.478 708.262 228.313 707.93 216.134C705.758 132.475 705.758 132.475 734.983 100.837C766.093 71.4461 766.093 71.4461 774 71.4461C774 284.624 774 497.801 774 717.438C750.552 697.34 750.552 697.34 740.974 687.988C738.785 685.857 736.597 683.727 734.343 681.531C732.006 679.242 729.669 676.954 727.261 674.596C724.727 672.123 722.193 669.65 719.582 667.102C712.598 660.283 705.62 653.457 698.646 646.628C694.178 642.255 689.708 637.884 685.237 633.514C628.601 578.148 572.206 522.538 515.907 466.828C506.71 457.727 497.511 448.628 488.311 439.529C486.479 437.718 484.648 435.907 482.762 434.042C453.13 404.745 423.35 375.604 393.512 346.519C362.81 316.587 332.271 286.496 301.875 256.254C283.16 237.644 264.333 219.164 245.339 200.837C232.306 188.238 219.436 175.487 206.677 162.611C199.33 155.205 191.935 147.88 184.339 140.73C154.818 112.69 134.435 91.3119 133.155 49.0864C133.54 32.596 134.731 16.3457 136.939 0Z" fill="url(#paint0_linear_3_77)"/>
<path d="M0 68.4689C23.4431 88.5631 23.4431 88.5631 32.6427 97.7768C35.7966 100.925 35.7966 100.925 39.0142 104.136C41.2559 106.388 43.4976 108.641 45.8073 110.961C49.4588 114.612 49.4588 114.612 53.1842 118.337C59.8906 125.045 66.5903 131.76 73.2872 138.477C80.5303 145.74 87.7822 152.993 95.033 160.248C107.583 172.806 120.127 185.369 132.668 197.936C150.82 216.126 168.983 234.307 187.148 252.484C216.651 282.009 246.149 311.538 275.642 341.072C277.405 342.838 279.168 344.604 280.985 346.423C295.291 360.75 309.597 375.076 323.903 389.403C336.408 401.926 348.914 414.45 361.42 426.973C363.181 428.737 364.942 430.5 366.757 432.317C396.143 461.744 425.535 491.166 454.932 520.583C473.047 538.711 491.157 556.845 509.26 574.985C521.665 587.416 534.076 599.842 546.492 612.263C553.649 619.425 560.803 626.588 567.951 633.758C575.712 641.54 583.482 649.313 591.254 657.084C593.496 659.337 595.738 661.589 598.047 663.91C609.296 675.136 620.642 685.743 633.15 695.563C637.061 699.576 637.061 699.576 639.427 709.529C639.318 713.052 639.209 716.576 639.096 720.206C638.996 725.962 638.996 725.962 638.893 731.834C638.719 735.842 638.542 739.85 638.364 743.858C638.259 747.936 638.164 752.014 638.079 756.092C637.834 766.037 637.491 775.969 637.061 785.907C621.55 772.937 607.071 759.306 592.815 744.976C590.576 742.738 588.338 740.499 586.031 738.193C578.695 730.855 571.37 723.507 564.045 716.159C558.937 711.045 553.827 705.931 548.717 700.818C535.316 687.405 521.923 673.984 508.533 660.56C494.849 646.845 481.156 633.139 467.464 619.432C440.634 592.571 413.814 565.7 387 538.823C375.01 544.323 367.015 552.301 357.975 561.708C348.023 571.877 338.133 581.888 327.275 591.105C315.867 600.805 305.425 611.381 294.919 622.031C285.327 631.703 275.385 640.706 265.027 649.539C257.759 656.023 250.953 662.878 244.108 669.807C235.547 678.472 226.964 686.848 217.687 694.739C207.096 703.787 197.328 713.49 187.546 723.392C171.656 739.459 155.806 755.468 136.938 768.046C136.108 732.128 135.475 696.212 135.088 660.286C134.902 643.601 134.65 626.923 134.243 610.242C133.854 594.124 133.641 578.012 133.549 561.89C133.483 555.759 133.355 549.629 133.161 543.501C131.629 492.992 131.629 492.992 144.58 477.499C153.126 469.007 162.788 462.351 172.662 455.469C177.975 450.365 183.203 445.169 188.29 439.84C198.736 429.243 209.458 419.313 220.92 409.827C227.812 403.642 227.812 403.642 238.154 389.977C180.193 332.016 122.232 274.055 62.5154 214.338C62.5768 246.116 62.6382 277.894 62.7014 310.635C62.6874 330.754 62.6673 350.873 62.62 370.993C62.5461 402.935 62.4969 434.876 62.6069 466.818C62.687 490.081 62.6835 513.343 62.5801 536.606C62.5283 548.922 62.518 561.235 62.6078 573.551C62.691 585.151 62.6623 596.747 62.5489 608.347C62.5269 612.596 62.5452 616.846 62.6077 621.095C63.0457 653.179 63.0457 653.179 54.368 664.858C48.4025 670.11 42.3615 674.392 35.7231 678.738C32.5127 681.718 29.3777 684.782 26.3388 687.936C22.2346 692.133 22.2346 692.133 18.0476 696.414C15.9034 698.615 15.9034 698.615 13.7159 700.861C10.1856 704.452 6.58767 707.975 2.97692 711.484C1.99454 711.484 1.01215 711.484 0 711.484C0 499.289 0 287.094 0 68.4689Z" fill="url(#paint1_linear_3_77)"/>
<path d="M577.523 157.777C578.19 173.396 578.674 189.006 578.995 204.636C579.129 209.942 579.312 215.246 579.545 220.547C581.429 264.524 581.429 264.524 571.852 280.158C565.154 286.895 558.526 292.292 550.731 297.692C546.791 301.065 542.878 304.47 539.01 307.925C536.143 310.372 536.143 310.372 533.219 312.867C522.881 322.156 513.327 332.219 503.693 342.23C497.147 348.3 497.147 348.3 488.216 351.277C469.551 332.611 450.885 313.946 431.654 294.715C443.328 281.096 453.508 269.751 466.633 258.062C478.376 247.505 489.774 236.75 500.868 225.502C511.01 215.231 521.428 205.638 532.416 196.291C542.26 187.43 551.452 177.919 560.615 168.36C570.931 157.777 570.931 157.777 577.523 157.777Z" fill="#F5F5F5"/>
<path d="M279.831 434.631C289.843 438.969 296.339 444.488 303.972 452.236C306.217 454.5 308.462 456.764 310.775 459.097C313.089 461.461 315.403 463.825 317.787 466.26C320.147 468.647 322.507 471.034 324.938 473.493C330.755 479.38 336.557 485.28 342.346 491.192C324.132 513.018 324.132 513.018 313.321 521.892C303.662 530.095 294.685 538.731 285.785 547.754C275.308 558.358 264.573 568.3 253.236 577.965C243.346 586.827 234.22 596.436 225.025 606.013C218.939 611.723 213.193 616.372 206.415 621.14C203.618 623.115 203.618 623.115 200.765 625.129C199.35 626.119 197.935 627.11 196.477 628.13C195.735 612.566 195.198 597.012 194.842 581.434C194.693 576.149 194.491 570.865 194.231 565.585C192.137 521.803 192.137 521.803 202.818 505.08C210.255 497.604 217.699 491.389 226.246 485.238C230.245 481.799 234.221 478.333 238.154 474.819C240.027 473.219 241.899 471.619 243.829 469.97C256.373 458.76 268.049 446.63 279.831 434.631Z" fill="#F5F5F5"/>
<defs>
<linearGradient id="paint0_linear_3_77" x1="453.578" y1="0" x2="453.578" y2="717.438" gradientUnits="userSpaceOnUse">
<stop offset="0.408654" stop-color="#262D49"/>
<stop offset="1" stop-color="#8F727D"/>
</linearGradient>
<linearGradient id="paint1_linear_3_77" x1="319.714" y1="68.4689" x2="319.714" y2="785.907" gradientUnits="userSpaceOnUse">
<stop offset="0.322115" stop-color="#262D49"/>
<stop offset="1" stop-color="#8F727D"/>
</linearGradient>
</defs>
</svg>
